<?xml version="1.0" encoding="UTF-8" standalone="no"?>
<svg width="256px" height="57px" viewBox="0 0 256 57" version="1.1" xmlns="http://www.w3.org/2000/svg" xmlns:xlink="http://www.w3.org/1999/xlink">
    <!-- Generator: Sketch 43.2 (39069) - http://www.bohemiancoding.com/sketch -->
    <title>logotype</title>
    <desc>Created with Sketch.</desc>
    <defs>
        <linearGradient x1="14.3017365%" y1="82.4933359%" x2="85.204783%" y2="14.458468%" id="linearGradient-1">
            <stop stop-color="#F10069" offset="0%"></stop>
            <stop stop-color="#FF5A24" offset="100%"></stop>
        </linearGradient>
    </defs>
    <g id="Page-1" stroke="none" stroke-width="1" fill="none" fill-rule="evenodd">
        <g id="Artboard" transform="translate(-153.000000, -628.000000)">
            <g id="Logotipos-de-producto" transform="translate(0.000000, 503.000000)">
                <g id="logos" transform="translate(153.000000, 125.000000)">
                    <g id="logotype">
                        <g id="isotype">
                            <path d="M0,25.2138243 C0,39.1396369 11.2998135,50.4283112 25.237886,50.4283112 L25.237886,50.4283112 C39.1759585,50.4283112 50.475772,39.1396369 50.475772,25.2138243 L50.475772,25.2138243 C50.475772,11.2886743 39.1759585,0 25.237886,0 L25.237886,0 C11.2998135,0 0,11.2886743 0,25.2138243" id="Fill-252" fill="url(#linearGradient-1)"></path>
                            <path d="M21.3202902,17.2341621 C21.3202902,18.9748058 19.9103005,20.3861386 18.1713575,20.3861386 C16.4317513,20.3861386 15.0224249,18.9748058 15.0224249,17.2341621 C15.0224249,15.4935183 16.4317513,14.0821856 18.1713575,14.0821856 C19.9103005,14.0821856 21.3202902,15.4935183 21.3202902,17.2341621" id="Fill-254" fill="#FFFFFF"></path>
                            <path d="M38.8533057,15.1465823 C38.1874404,14.7788406 37.5248912,14.4932611 36.884228,14.2977948 C36.2548394,14.1043163 35.6161658,14.0320932 34.9874404,14.0824506 C34.3653472,14.136121 33.7127461,14.3388759 33.0482073,14.6840892 C32.5952332,14.9212991 31.2887047,16.0516905 29.4655337,17.7850457 L25.2382176,21.9898897 L25.2382176,21.9958531 C25.2382176,21.9958531 19.6612642,27.6975049 19.4430674,27.9261011 C18.7108808,28.6947142 15.967171,31.5551478 15.8729948,31.6227328 C15.4279793,31.9381292 15.0658653,32.0852259 14.6626321,32.1137176 C14.2932228,32.1428719 14.006715,32.1176931 13.5544041,31.8970482 C13.4463005,31.8433778 12.3195026,31.2443896 11.9361658,31.0409721 C11.624456,32.038844 11.3671295,33.010212 10.8445181,34.8502454 L11.6231295,35.2868972 C12.2883316,35.6546388 12.9508808,35.9402184 13.5922073,36.1356846 C14.2215959,36.3291631 14.8596062,36.4013863 15.4889948,36.3510288 C16.1110881,36.2966959 16.7636891,36.0946036 17.4275648,35.7493903 C17.8812021,35.5121804 19.1877306,34.381789 21.0109016,32.6484338 L25.2382176,28.4435898 L25.2382176,28.4376264 C25.2382176,28.4376264 30.815171,22.7359745 31.0327047,22.5073784 C31.7655544,21.7381026 34.508601,18.877669 34.6027772,18.8107467 C35.0477927,18.4953503 35.4099067,18.3482536 35.8138031,18.3197619 C36.1832124,18.2906076 36.4697202,18.3157863 36.9213679,18.5364313 C37.0301347,18.5901017 38.1569326,19.1890899 38.5402694,19.3925073 C38.8519793,18.3946354 39.1093057,17.4226048 39.6312539,15.5832341 L38.8533057,15.1465823 Z" id="Fill-256" fill="#FFFFFF"></path>
                        </g>
                        <g id="wordmark" transform="translate(64.331606, 5.834114)" fill="#FFFFFF">
                            <path d="M1.52174093,32.6035674 C2.66180311,33.0183534 3.85492228,33.3807943 5.09910881,33.6915525 C6.34395855,34.0023108 7.86404145,34.1573586 9.66201036,34.1573586 C12.4959171,34.1573586 14.6142176,33.5795735 16.0142591,32.4226782 C17.4143005,31.2657829 18.1146528,29.7027153 18.1146528,27.7348006 C18.1146528,26.7680708 17.9667565,25.9398239 17.6736166,25.2487346 C17.3798135,24.558308 16.9387772,23.9626328 16.351171,23.4617091 C15.7635648,22.9614479 15.0287254,22.5029304 14.1479793,22.0888069 C13.2659067,21.6740209 12.236601,21.2261049 11.0620518,20.7424087 L8.1067772,19.5503958 C7.104,19.1362723 6.18810363,18.67908 5.35842487,18.1781562 C4.52940933,17.6778951 3.81115026,17.0643298 3.20630052,16.3394481 C2.60145078,15.6139038 2.12592746,14.7770431 1.78105699,13.8268782 C1.4348601,12.8780385 1.26242487,11.7469845 1.26242487,10.4343788 C1.26242487,7.29234121 2.33284974,4.83211653 4.47767876,3.05304213 C6.61985492,1.27529292 9.62752332,0.38542442 13.4993575,0.38542442 C15.158715,0.38542442 16.7311917,0.523907306 18.218114,0.800210482 C19.7037098,1.07651366 21.0181969,1.42172698 22.1589223,1.83585044 C21.9858238,3.28627646 21.6058031,4.71947495 21.0181969,6.1354459 C20.0843938,5.79023258 19.0040207,5.47947433 17.7770777,5.20250856 C16.5494715,4.92686798 15.158715,4.78838509 13.6028187,4.78838509 C11.4254922,4.78838509 9.74822798,5.22834986 8.57367876,6.10960459 C7.39780311,6.99019673 6.81019689,8.31075363 6.81019689,10.0712753 C6.81019689,10.7968196 6.95743005,11.4441774 7.25123316,12.0140113 C7.54437306,12.5838452 7.93367876,13.0847689 8.41782383,13.5161199 C8.90196891,13.9487961 9.47166839,14.3370783 10.1289119,14.681629 C10.784829,15.0275049 11.4772228,15.3382632 12.2034404,15.6139038 L15.1063212,16.7535715 C16.488456,17.3061779 17.7160622,17.8852881 18.7884767,18.4889145 C19.8595648,19.0932035 20.7761244,19.8015202 21.5361658,20.6125396 C22.2968705,21.4242216 22.8758549,22.3823377 23.2731192,23.4875504 C23.6703834,24.5927631 23.8700104,25.8874787 23.8700104,27.3723598 C23.8700104,30.9291834 22.6424041,33.735284 20.1885181,35.7893363 C17.7339689,37.8440513 14.293886,38.8710775 9.86959585,38.8710775 C8.79784456,38.8710775 7.83021762,38.8366224 6.96605181,38.7677123 C6.1012228,38.6981396 5.29807254,38.5947743 4.55527461,38.456954 C3.81115026,38.3184712 3.09421762,38.1461958 2.40315026,37.9388028 C1.71141969,37.7320723 1.00310881,37.5074518 0.277554404,37.2656037 C0.345865285,36.5062669 0.501720207,35.7297026 0.743792746,34.9345855 C0.985202073,34.1407937 1.24451813,33.3635667 1.52174093,32.6035674" id="Fill-239"></path>
                            <path d="M27.8109513,0.281860424 C28.1903088,0.212950279 28.6147648,0.161267671 29.0810031,0.126812599 C29.5479047,0.0923575266 29.9710342,0.0751299905 30.3517181,0.0751299905 C30.7317389,0.0751299905 31.1634902,0.0923575266 31.6476352,0.126812599 C32.1311171,0.161267671 32.5628684,0.212950279 32.9442155,0.281860424 L32.9442155,15.7177328 C33.254599,15.2346992 33.6439047,14.7165479 34.1108062,14.1639415 C34.5777078,13.6119978 35.1474073,13.1017977 35.8218943,12.6359916 C36.4963813,12.1695229 37.2736663,11.7898546 38.1550756,11.4963238 C39.0371482,11.2034557 40.0127337,11.0556965 41.0851482,11.0556965 C44.1266404,11.0556965 46.3822259,11.9283374 47.8512415,13.6716316 C49.3209202,15.4155883 50.0550964,17.9964057 50.0550964,21.4154091 L50.0550964,38.2493622 C49.6744124,38.3182724 49.2519461,38.369955 48.7850446,38.4050727 C48.318143,38.4395277 47.8950135,38.4567553 47.5143295,38.4567553 C47.1336456,38.4567553 46.7111793,38.4395277 46.2442777,38.4050727 C45.7773762,38.369955 45.3542466,38.3182724 44.9742259,38.2493622 L44.9742259,22.8141525 C44.9742259,20.3625416 44.5676767,18.5582885 43.7552415,17.4013931 C42.9428062,16.2444978 41.7072415,15.6660502 40.0478839,15.6660502 C39.1140808,15.6660502 38.215428,15.8303744 37.3512622,16.1583602 C36.4870964,16.4863459 35.7263917,17.0044972 35.0698114,17.7121514 C34.4125679,18.4198056 33.8939358,19.3434665 33.5145782,20.4831343 C33.1332311,21.6228021 32.9442155,23.004318 32.9442155,24.6270194 L32.9442155,38.2493622 C32.5628684,38.3182724 32.1311171,38.369955 31.6476352,38.4050727 C31.1634902,38.4395277 30.7317389,38.4567553 30.3517181,38.4567553 C30.0055212,38.4567553 29.5903503,38.4395277 29.1068684,38.4050727 C28.6220601,38.369955 28.1903088,38.3182724 27.8109513,38.2493622 L27.8109513,0.281860424 Z" id="Fill-241"></path>
                            <path d="M66.1806425,34.7792064 C68.5662176,34.7792064 70.3290363,33.9165044 71.4697617,32.1891126 C72.610487,30.463046 73.1808497,28.0631177 73.1808497,24.9893277 C73.1808497,21.9162003 72.610487,19.5248858 71.4697617,17.8153841 C70.3290363,16.1058824 68.5662176,15.2511316 66.1806425,15.2511316 C63.7957306,15.2511316 62.0408705,16.1058824 60.9180518,17.8153841 C59.7939067,19.5248858 59.2321658,21.9162003 59.2321658,24.9893277 C59.2321658,28.0631177 59.7939067,30.463046 60.9180518,32.1891126 C62.0408705,33.9165044 63.7957306,34.7792064 66.1806425,34.7792064 M66.1806425,38.8714088 C64.1067772,38.8714088 62.292228,38.5169191 60.7363316,37.809265 C59.1804352,37.1022734 57.8845181,36.1262672 56.8479171,34.8825716 C55.8099896,33.6395386 55.0406632,32.1718851 54.5399378,30.4796109 C54.0385492,28.788662 53.7878549,26.957905 53.7878549,24.9893277 C53.7878549,23.021413 54.0385492,21.1913186 54.5399378,19.4990444 C55.0406632,17.8074329 55.8099896,16.3391168 56.8479171,15.0960838 C57.8845181,13.8530508 59.1804352,12.8684308 60.7363316,12.1435491 C62.292228,11.4186674 64.1067772,11.055564 66.1806425,11.055564 C68.255171,11.055564 70.0697202,11.4186674 71.6249534,12.1435491 C73.1808497,12.8684308 74.4774301,13.8530508 75.5140311,15.0960838 C76.5512953,16.3391168 77.3199585,17.8074329 77.8213472,19.4990444 C78.3227358,21.1913186 78.5734301,23.021413 78.5734301,24.9893277 C78.5734301,26.957905 78.3227358,28.788662 77.8213472,30.4796109 C77.3199585,32.1718851 76.5512953,33.6395386 75.5140311,34.8825716 C74.4774301,36.1262672 73.1808497,37.1022734 71.6249534,37.809265 C70.0697202,38.5169191 68.255171,38.8714088 66.1806425,38.8714088" id="Fill-243"></path>
                            <path d="M87.9588145,33.8987468 C88.6147316,34.1405949 89.2892187,34.3128702 89.9809492,34.4168981 C90.6720166,34.5202633 91.5706694,34.5719459 92.677571,34.5719459 C93.9217575,34.5719459 95.0631461,34.3738292 96.0997472,33.9762707 C97.1370114,33.5793748 98.0263793,32.966472 98.7705036,32.1375625 C99.5133016,31.308653 100.100908,30.2650618 100.533322,29.0034761 C100.965074,27.7438782 101.181944,26.2503833 101.181944,24.5229915 C101.181944,21.7606224 100.670607,19.5687497 99.6512497,17.9447231 C98.6318922,16.3220217 96.9632497,15.5103398 94.6479751,15.5103398 C93.7838093,15.5103398 92.9541306,15.6660502 92.1589389,15.9768084 C91.3630839,16.2875667 90.6554363,16.7533727 90.033343,17.3748892 C89.4105865,17.9964057 88.9091979,18.782909 88.5298404,19.7317487 C88.1484933,20.6819136 87.9588145,21.8129676 87.9588145,23.1249107 L87.9588145,33.8987468 Z M82.8255503,11.677213 C83.1704207,11.6083028 83.5252394,11.5566202 83.8886798,11.5221651 C84.251457,11.4883727 84.6221927,11.4704825 85.0028767,11.4704825 C85.3484104,11.4704825 85.7118508,11.4883727 86.0925347,11.5221651 C86.4718922,11.5566202 86.8353326,11.6083028 87.1808663,11.677213 C87.2153534,11.7467857 87.2584622,11.9627925 87.310856,12.3252334 C87.3625865,12.6876742 87.4143171,13.0759564 87.4660477,13.4900798 C87.5177782,13.9048659 87.570172,14.3024244 87.6219026,14.6820928 C87.6736332,15.0624238 87.6994984,15.3036093 87.6994984,15.4069745 C88.0450321,14.8550308 88.4595399,14.3189894 88.9443482,13.8015007 C89.4278301,13.2833494 90.0068145,12.8168807 90.6813016,12.4027573 C91.3551254,11.9879712 92.1151668,11.660648 92.9627523,11.4181373 C93.8096746,11.1769518 94.7520995,11.0556965 95.7887005,11.0556965 C97.3439337,11.0556965 98.7870839,11.3154347 100.118151,11.8329234 C101.448555,12.3510747 102.589944,13.1534803 103.540327,14.2414655 C104.490711,15.3294506 105.233509,16.7109665 105.770048,18.3853505 C106.30526,20.0603971 106.573861,22.0369256 106.573861,24.3162611 C106.573861,28.8742696 105.337633,32.4403696 102.866504,35.0125732 C100.394711,37.5854395 96.8949389,38.8715413 92.3665244,38.8715413 C91.6058197,38.8715413 90.8278715,38.8198587 90.033343,38.7158309 C89.2374881,38.6124657 88.5464207,38.4739828 87.9588145,38.3010448 L87.9588145,50.4742869 C87.5443067,50.5425345 87.1032705,50.5942171 86.6370321,50.6293347 C86.1701306,50.6631272 85.7463378,50.6810173 85.3663171,50.6810173 C84.9856332,50.6810173 84.5631668,50.6631272 84.0962653,50.6293347 C83.6293637,50.5942171 83.205571,50.5425345 82.8255503,50.4742869 L82.8255503,11.677213 Z" id="Fill-245"></path>
                            <path d="M128.040323,22.3996315 C128.040323,21.4329016 127.910997,20.5092407 127.651681,19.6286485 C127.392365,18.7480564 127.011681,17.9801058 126.510955,17.3234717 C126.008904,16.6681627 125.37023,16.1407351 124.592282,15.7438391 C123.814334,15.3469432 122.889152,15.1475013 121.818064,15.1475013 C119.709049,15.1475013 118.093463,15.7875706 116.969981,17.064396 C115.845836,18.3425467 115.163391,20.1209585 114.921318,22.3996315 L128.040323,22.3996315 Z M114.869588,26.2327582 C114.939225,29.1329477 115.690645,31.2572354 117.125173,32.6036336 C118.559702,33.9506944 120.678002,34.6238935 123.477422,34.6238935 C125.931308,34.6238935 128.264489,34.1925425 130.477629,33.3291779 C130.754189,33.8466666 130.978354,34.4774595 131.151453,35.2195687 C131.324551,35.9623406 131.428012,36.695836 131.462499,37.4207178 C130.322437,37.9050766 129.068966,38.2668548 127.703411,38.5087029 C126.337194,38.7498884 124.825733,38.8711438 123.166375,38.8711438 C120.746313,38.8711438 118.672448,38.5345442 116.944116,37.8613451 C115.215121,37.1874834 113.789215,36.2386437 112.666396,35.0121757 C111.542251,33.7870328 110.721194,32.3366068 110.203225,30.6615602 C109.684593,28.9871762 109.425277,27.1478054 109.425277,25.1447731 C109.425277,23.1761958 109.675971,21.3374876 110.17736,19.6286485 C110.678085,17.9191469 111.447411,16.4349284 112.485339,15.1740052 C113.52194,13.9137447 114.826479,12.9125598 116.399619,12.169788 C117.972095,11.4276787 119.830417,11.0559615 121.973919,11.0559615 C123.805049,11.0559615 125.413339,11.3667198 126.796137,11.9882363 C128.178272,12.6097528 129.336904,13.4645036 130.270044,14.5524887 C131.203183,15.6398113 131.911494,16.9351895 132.396303,18.4372981 C132.879784,19.9394068 133.12252,21.5707219 133.12252,23.3319062 C133.12252,23.8156024 133.10395,24.3251399 133.07079,24.8598561 C133.035639,25.3958975 133.000489,25.8530898 132.966665,26.2327582 L114.869588,26.2327582 Z" id="Fill-247"></path>
                            <path d="M187.021331,11.4785662 C187.679901,11.4785662 188.04732,11.1340155 188.04732,10.6370673 C188.04732,10.0851236 187.650056,9.82207237 187.021331,9.82207237 L185.784439,9.82207237 L185.784439,11.4785662 L187.021331,11.4785662 Z M185.046947,9.1667634 L187.101579,9.1667634 C188.04732,9.1667634 188.810678,9.66371156 188.810678,10.5840595 C188.810678,11.3486971 188.309289,11.7939627 187.679901,11.9775022 L188.970512,13.7638652 L188.04732,13.7638652 L186.889351,12.0795422 L185.784439,12.0795422 L185.784439,13.7638652 L185.046947,13.7638652 L185.046947,9.1667634 Z M190.81159,11.5574153 L190.81159,11.531574 C190.81159,9.29729511 189.075963,7.45593654 186.758698,7.45593654 C184.467299,7.45593654 182.703818,9.32446161 182.703818,11.5574153 L182.703818,11.582594 C182.703818,13.8181982 184.442761,15.6582315 186.758698,15.6582315 C189.048771,15.6582315 190.81159,13.793682 190.81159,11.5574153 L190.81159,11.5574153 Z M182.17988,11.582594 L182.17988,11.5574153 C182.17988,9.06141039 184.205331,6.95700059 186.758698,6.95700059 C189.337932,6.95700059 191.33818,9.03291869 191.33818,11.531574 L191.33818,11.5574153 C191.33818,14.0534203 189.313393,16.1578301 186.758698,16.1578301 C184.178139,16.1578301 182.17988,14.0792616 182.17988,11.582594 L182.17988,11.582594 Z" id="Fill-249"></path>
                            <path d="M156.455726,11.6773455 C156.165903,11.6250003 155.810421,11.592533 155.421778,11.5700047 L155.424431,11.5647039 C155.361426,11.5627161 155.309032,11.5613909 155.247353,11.5594031 C155.181032,11.5560901 155.124659,11.5501268 155.055685,11.548139 C154.734027,11.5382 154.434918,11.531574 154.14841,11.5275984 C148.88184,11.3917659 148.266379,11.6183743 148.266379,11.6183743 L148.271685,11.6203621 C147.044742,11.7913123 145.994213,12.1882082 145.125405,12.8170133 C143.932949,13.6803779 142.973944,14.6994529 142.247726,15.8729131 C142.247726,15.2865143 142.195996,14.5702464 142.092535,13.7234467 C141.98841,12.8779722 141.884949,12.1954968 141.780825,11.6773455 C141.469778,11.6084353 141.124245,11.5567527 140.744224,11.5222977 C140.362877,11.4878426 139.982856,11.4706151 139.603498,11.4706151 C139.222151,11.4706151 138.859374,11.4878426 138.514504,11.5222977 C138.168307,11.5567527 137.80553,11.6084353 137.425509,11.6773455 L137.425509,38.2494948 C137.840017,38.3184049 138.281053,38.3700875 138.747954,38.4045426 C139.214856,38.4389977 139.637322,38.4568878 140.018006,38.4568878 C140.398027,38.4568878 140.82182,38.4389977 141.288721,38.4045426 C141.75496,38.3700875 142.178089,38.3184049 142.558773,38.2494948 L142.558773,24.6834727 C142.558773,22.8884959 142.757074,21.4201798 143.155001,20.280512 C143.552265,19.1415068 144.088804,18.2436871 144.762628,17.587053 C145.436452,16.931744 146.197156,16.4732265 147.044742,16.2148135 C147.891001,15.9557378 148.781695,15.8258687 149.714172,15.8258687 L150.414524,15.8258687 L152.178669,15.8258687 C152.178669,15.8252061 152.178669,15.8238809 152.179333,15.8232183 L159.617923,38.2494948 C159.859996,38.2832872 160.171042,38.3091285 160.551726,38.3276813 C160.801758,38.3382828 160.759312,38.3555104 160.994752,38.359486 L162.652783,32.4610426 L156.455726,11.6773455 Z" id="Fill-258"></path>
                            <path d="M177.063196,11.5582105 C176.233517,11.5356821 175.448937,11.5913403 174.730015,11.7238598 C174.02303,11.8524038 173.369103,12.102203 172.784812,12.4666317 C172.209144,12.8303977 171.679237,13.3538498 171.210346,14.0210855 C170.890015,14.4782778 170.192978,16.2275353 169.298305,18.8196169 L167.627009,24.0441986 L165.83302,29.8565042 C165.832356,29.8598172 164.53445,34.1362217 163.900419,36.3943542 C163.623859,37.3783115 163.351942,38.3013099 163.351942,38.3013099 L161.744978,43.3257871 C161.467092,44.1546966 161.181911,44.8100056 160.888771,45.2943644 C160.594305,45.777398 160.274636,46.1491152 159.929766,46.4075282 C159.583569,46.6666039 159.211507,46.8388792 158.814906,46.9256795 C158.416978,47.0118172 157.993185,47.054886 157.544191,47.054886 C156.922097,47.054886 156.34245,46.9945897 155.807237,46.8739969 C155.270698,46.7527415 154.848232,46.6407626 154.537185,46.5373973 C154.259963,47.1589138 154.052377,47.7804303 153.914429,48.4019468 C153.775818,49.0234633 153.706844,49.7311175 153.706844,50.525572 C154.29445,50.6978473 154.978222,50.8442814 155.755507,50.9661993 C156.533455,51.0861295 157.318698,51.1470885 158.114553,51.1470885 C159.185641,51.1470885 160.128066,51.0258331 160.941165,50.7846476 C161.752274,50.5427995 162.487776,50.1280134 163.144356,49.5416146 C163.800937,48.9538906 164.389206,48.1766637 164.907838,47.2105965 C165.42647,46.243204 165.926533,45.0518537 166.411341,43.6365453 L172.512895,24.7386008 C172.839859,23.663205 173.160191,22.7037637 173.188709,22.6056993 C173.511693,21.4938606 174.731341,17.349313 174.788377,17.2366714 C175.060958,16.7079186 175.337517,16.384571 175.714222,16.1546496 C176.056439,15.9406306 176.34759,15.8220256 176.896066,15.8081111 C177.028046,15.8061233 178.419465,15.8207004 178.892999,15.8260012 C179.414947,14.441835 179.794305,13.4479386 180.307631,11.5535723 L177.063196,11.5582105 Z" id="Fill-260"></path>
                        </g>
                    </g>
                </g>
            </g>
        </g>
    </g>
</svg>